# xmcd
#
# Track frame offsets: 
#        150
#        103407
#        116157
#        140457
#        157032
#        168207
#        187857
#        203232
#        218757
#        244857
#        266607
#        287907
#        302457
#
# Disc length: 4257 seconds
#
# Revision: 1
# Processed by: cddbd v1.4PL0 Copyright (c) Steve Scherf et al.
# Submitted via: ExactAudioCopy v0.90b4
#
DISCID=bf109f0d
DTITLE=Various Artist - Escape
DYEAR=1994
DGENRE=Electronic
TTITLE0=CD-ROM - CD-ROM
TTITLE1=Snowman - FareWell (Music Contest II Theme)
TTITLE2=Markell Moss - Distant Voyage
TTITLE3=Krystall - Guardian of Souls
TTITLE4=Khyron - Estranged
TTITLE5=Jenkins - Maximum Overload
TTITLE6=Clement Poon - Lost in my Fantasy
TTITLE7=Donovan Seidle - Fusion Harmony
TTITLE8=Protocol - Wish this song had a name
TTITLE9=tRASh - Adrenalin
TTITLE10=JeDi - Deliverance
TTITLE11=Krystall - Take me to the Night
TTITLE12=C. C. Catch - Story of Faith
EXTD=Escape - Demos-Intros-Music from The Hornet Demo Archives.
EXTT0=CD-ROM Portion, contains tons of 3D Demos, Intros, and Music
EXTT1=Did not compete in MCII
EXTT2=
EXTT3=
EXTT4=
EXTT5=
EXTT6=
EXTT7=
EXTT8=
EXTT9=
EXTT10=
EXTT11=Did not compete in MCII
EXTT12=Did not compete in MCII
PLAYORDER=
